# xmcd
#
# Track frame offsets: 
#        150
#        10882
#        24347
#        36782
#        49875
#        61809
#        71790
#        83725
#        96318
#        110839
#        128129
#        140990
#        151984
#        164691
#        174761
#        187436
#        200661
#        212668
#        226354
#        242260
#        254052
#        265840
#        280259
#        291583
#        302258
#        312917
#        323031
#        336202
#        351306
#        364187
#        376372
#
# Disc length: 5155 seconds
#
# Revision: 2
# Processed by: cddbd v1.5.2PL0 Copyright (c) Steve Scherf et al.
# Submitted via: ExactAudioCopy v1.0b1
#
DISCID=e114211f
DTITLE=Various Artist - Dim Lights, Thick Smoke and Hillbilly Music: Co
DTITLE=untry and Western Hit Parade 1968
DYEAR=2013
DGENRE=Country
TTITLE0=Waylon Jennings - Only Daddy That'll Walk The Line
TTITLE1=Tammy Wynette - D-I-V-O-R-C-E
TTITLE2=Johnny Cash - Folsom Prison Blues
TTITLE3=The International Submarine Band - Luxury Liner
TTITLE4=Henson Cargill - Skip A Rope
TTITLE5=Merle Haggard - Mama Tried
TTITLE6=George Jones - Beneath Still Waters
TTITLE7=Glen Campbell - I Wanna Live
TTITLE8=Jeannie C. Riley - Harper Valley P.T.A.
TTITLE9=Doug Dillard and Gene Clark - Train Leaves Here This Morning
TTITLE10=Porter Wagoner - The Carroll County Accident
TTITLE11=Jerry Lee Lewis - Another Place Another Time
TTITLE12=Merle Haggard - I Take A Lot Of Pride In What I Am
TTITLE13=Loretta Lynn - Fist City
TTITLE14=Charlie Louvin - Will You Visit Me On Sundays?
TTITLE15=Johnny Darrell - The Son Of Hickory Holler's Tramp
TTITLE16=Roger Miller - Little Green Apples
TTITLE17=Tom T. Hall - Ballad Of Forty Dollars
TTITLE18=The Byrds - Hickory Wind
TTITLE19=The Osborne Brothers - Rocky Top
TTITLE20=Jerry Lee Lewis - What's Made Milwaukee Famous (Has Made A Lo
TTITLE20=ser Out Of Me)
TTITLE21=Glen Campbell - Wichita Lineman
TTITLE22=Porter Wagoner and Dolly Parton - Holding On To Nothin'
TTITLE23=Johnny Cash - Daddy Sang Bass
TTITLE24=Merle Haggard - I Started Loving You Again
TTITLE25=Buck Owens - How Long Will My Baby Be Gone?
TTITLE26=George Jones - When The Grass Grows Over Me
TTITLE27=Marty Robbins - I Walk Alone
TTITLE28=Conway Twitty - Next In Line
TTITLE29=Tammy Wynette - Stand By Your Man
TTITLE30=Jim Alley - Only Daddy That'll Walk The Line
EXTD=YEAR: 1968
EXTT0=
EXTT1=
EXTT2=
EXTT3=
EXTT4=
EXTT5=
EXTT6=
EXTT7=
EXTT8=
EXTT9=
EXTT10=
EXTT11=
EXTT12=
EXTT13=
EXTT14=
EXTT15=
EXTT16=
EXTT17=
EXTT18=
EXTT19=
EXTT20=
EXTT21=
EXTT22=
EXTT23=
EXTT24=
EXTT25=
EXTT26=
EXTT27=
EXTT28=
EXTT29=
EXTT30=
PLAYORDER=
